# xmcd
#
# Track frame offsets: 
#        150
#        11270
#        23631
#        37149
#        48631
#        62909
#        74946
#        88077
#        99754
#        113845
#        127723
#        156423
#        167727
#        179672
#        191411
#        204283
#        215728
#        227687
#        239832
#        253354
#        266296
#
# Disc length: 3708 seconds
#
# Revision: 2
# Processed by: cddbd v1.5.2PL0 Copyright (c) Steve Scherf et al.
# Submitted via: ExactAudioCopy v1.0b1
#
DISCID=330e7a15
DTITLE=姚莉 - 上海老歌 (1931-1949)
DYEAR=2009
DGENRE=Pop
TTITLE0=玫瑰玫瑰我爱你
TTITLE1=踏车寻春
TTITLE2=风雨交响曲
TTITLE3=春风曲
TTITLE4=哪个不多情
TTITLE5=卖相思
TTITLE6=是真是假
TTITLE7=白兰香
TTITLE8=莺儿飞
TTITLE9=默默无言
TTITLE10=西子姑娘
TTITLE11=可爱的秋天
TTITLE12=秋的怀念
TTITLE13=恋
TTITLE14=重逢
TTITLE15=等待
TTITLE16=人隔万重山
TTITLE17=又一春
TTITLE18=得不到的爱情
TTITLE19=哈恰恰
TTITLE20=秋雨送相思
EXTD=YEAR: 2009
EXTT0=
EXTT1=
EXTT2=
EXTT3=
EXTT4=
EXTT5=
EXTT6=
EXTT7=
EXTT8=
EXTT9=
EXTT10=
EXTT11=
EXTT12=
EXTT13=
EXTT14=
EXTT15=
EXTT16=
EXTT17=
EXTT18=
EXTT19=
EXTT20=
PLAYORDER=
